<?xml version="1.0" encoding="utf-8"?>
<!-- Generator: Adobe Illustrator 24.0.1, SVG Export Plug-In . SVG Version: 6.00 Build 0)  -->
<svg version="1.1" xmlns="http://www.w3.org/2000/svg" xmlns:xlink="http://www.w3.org/1999/xlink" x="0px" y="0px"
	 viewBox="0 0 841.9 378.9" style="enable-background:new 0 0 841.9 378.9;" xml:space="preserve">
<style type="text/css">
	.st0{fill:#9054A6;}
	.st1{fill:#371060;}
	.st2{fill:#F8E6F2;}
	.st3{fill:#FBFAFA;}
	.st4{fill:#333333;}
	.st5{fill:#1C1C1C;}
	.st6{fill:#FFFFFF;}
	.st7{display:none;}
	.st8{display:inline;fill:none;stroke:#9054A6;stroke-miterlimit:10;}
	.st9{display:inline;opacity:0.5;fill:none;stroke:#9054A6;stroke-miterlimit:10;}
</style>
<g id="Camada_1">
</g>
<g id="marca">
	<g>
		<path class="st0" d="M64.8,111.3h17.4V97.1c0-9.8,2.2-17.5,6.6-23.2c4.4-5.7,10.4-9.8,18.1-12.3c7.7-2.5,16.5-3.7,26.4-3.7h8.7
			c1.8,0,3.1,0.8,3.8,2.5c0.7,1.7,1.1,3.7,1.1,6.2c0,2.3-0.4,4.3-1.1,6.1c-0.7,1.7-2,2.6-3.8,2.6h-8.7c-9.4,0-17,1.4-22.7,4.2
			c-5.7,2.8-8.6,7.9-8.6,15.1v16.6h80.6c1.8,0,3.1,0.9,3.8,2.6s1.1,3.8,1.1,6.1v111.2c0,4.5,0.6,8.1,1.9,10.9
			c1.2,2.8,2.5,5.1,3.7,6.8c1.2,1.7,1.9,3.1,1.9,4.1c0,1.3-0.7,2.7-2.2,4.2c-1.5,1.5-3.2,2.8-5.2,3.8c-2,1.1-3.7,1.6-5.2,1.6
			c-2.3,0-4.6-1.4-6.8-4.2c-2.2-2.8-4.1-6.5-5.6-10.9c-1.5-4.5-2.2-9.1-2.2-13.9v-105h-65.8v157.1c0,11.1-1.6,19.9-4.7,26.6
			c-3.1,6.6-6.5,9.9-9.9,9.9c-1.3,0-3-0.5-5.1-1.6c-2.1-1.1-3.8-2.4-5.3-3.8c-1.5-1.5-2.2-2.9-2.2-4.2c0-1,0.6-2.4,1.9-4.3
			c1.2-1.9,2.5-4.8,3.7-8.7c1.2-3.9,1.9-9.3,1.9-16.3V128.7H64.8c-1.8,0-3.1-0.9-3.8-2.6c-0.7-1.7-1.1-3.8-1.1-6.1
			c0-2.5,0.4-4.5,1.1-6.2C61.7,112.1,63,111.3,64.8,111.3z M188.4,84.5c0,2.3-1,3.9-3.1,4.8c-2.1,0.9-4.6,1.4-7.6,1.4
			c-3.1,0-5.7-0.5-7.8-1.4c-2.1-0.9-3.1-2.5-3.1-4.8V62.9c0-2.3,1-3.9,3.1-4.8c2.1-0.9,4.6-1.4,7.6-1.4c3.1,0,5.7,0.5,7.8,1.4
			c2.1,0.9,3.1,2.5,3.1,4.8V84.5z"/>
		<path class="st0" d="M499.8,146.3v7.4c0,9.1-1.2,16.3-3.6,21.7c-2.4,5.4-6.5,9.4-12.3,12c-5.8,2.6-14,4.5-24.6,5.5l-48.4,4.7v29.5
			c0,12.9,10.8,19.4,32.3,19.4c12.6,0,21.8-1.4,27.8-4.2c6-2.8,8.9-7,8.9-12.7v-9.4c0-3.8,3.3-5.7,9.9-5.7c6.6,0,9.9,1.9,9.9,5.7
			v6.9c0,24.5-18.2,36.7-54.6,36.7c-17.4,0-30.7-3.4-40.1-10.2c-9.3-6.8-14-16.5-14-29v-77.9c0-12.7,5-22.5,15-29.2
			c10-6.7,24.3-10.1,42.8-10.1c17.4,0,30.2,3.1,38.5,9.4C495.7,123.3,499.8,133,499.8,146.3z M411,144.3v36l46.7-4.7
			c9.1-0.8,15.1-2.7,18-5.6c2.9-2.9,4.3-8.3,4.3-16.3v-9.4c0-6.3-3-11.1-8.9-14.4c-6-3.3-14.6-5-25.8-5c-11.1,0-19.6,1.7-25.4,5
			C413.9,133.2,411,138,411,144.3z"/>
		<path class="st0" d="M325.5,196.1c5.4-7.3,7.5-18.6,10.3-27.7c7.2-23.3,14-53,14-53c0.4-4.4-3.5-5.2-9.1-5.2
			c-4.8,0-9.4,1.3-10.4,6.3c0,0-10.6,42.6-18.5,62.5c-3.3,8.4-5.2,14.5-21.2,15c-16-0.5-17.8-6.6-21.2-15
			c-7.9-20-18.5-62.5-18.5-62.5c-1-5.1-5.5-6.3-10.4-6.3c-5.7,0-9.5,0.8-9.1,5.2c0,0,6.8,29.6,14,53c2.8,9.1,4.9,20.4,10.3,27.7
			c2.3,3.1,4.9,5.4,7.7,7.1c-11.2,7-16.2,18-18.9,27.4c-0.4,1.3-7.2,26.7-7.2,26.7c-0.5,3.4,2.6,5.2,9.4,5.2c6,0,9.5-3.8,10.5-7.8
			c0,0,0.6-3.8,4.3-17.8c2.9-11,11.2-22.7,28.2-23l0,0c0.3,0,0.6,0,0.9,0c0.3,0,0.6,0,0.9,0l0,0c17,0.3,25.2,12,28.2,23
			c3.7,14,4.3,17.8,4.3,17.8c1,4,4.6,7.8,10.5,7.8c6.8,0,9.9-1.7,9.4-5.2c0,0-6.8-25.4-7.2-26.7c-2.7-9.4-7.8-20.4-18.9-27.4
			C320.6,201.5,323.2,199.2,325.5,196.1z"/>
		<g>
			<path class="st1" d="M134.5,312.8v-33.7h20.4v3.8h-16.1v11.5h14.5v3.8h-14.5v14.6H134.5z"/>
			<path class="st1" d="M163.4,283.3c-0.8,0-1.4-0.3-2-0.8c-0.6-0.5-0.8-1.2-0.8-1.9c0-0.8,0.3-1.4,0.8-1.9c0.6-0.5,1.2-0.8,2-0.8
				c0.8,0,1.5,0.3,2,0.8c0.6,0.5,0.8,1.2,0.8,1.9c0,0.7-0.3,1.4-0.8,1.9C164.8,283.1,164.2,283.3,163.4,283.3z M161.3,312.8v-25.3
				h4.1v25.3H161.3z"/>
			<path class="st1" d="M170.4,312.8l10-14.5l0,3.1l-9.4-13.9h4.7l3.1,4.9c0.8,1.3,1.5,2.5,2.1,3.6c0.6,1.1,1.2,2.2,1.8,3.2h-2.1
				c0.6-1,1.2-2.1,1.8-3.2c0.5-1.1,1.2-2.3,2-3.6l3.2-4.9h4.7l-9.5,14v-3l9.9,14.2h-4.7l-3.7-5.7c-0.8-1.2-1.5-2.4-2.1-3.4
				c-0.6-1.1-1.2-2.1-1.8-3.1h2.1c-0.6,1-1.2,2-1.7,3.1c-0.5,1.1-1.2,2.2-2,3.4l-3.8,5.7H170.4z"/>
			<path class="st1" d="M204.9,313.3c-1.6,0-3-0.3-4.4-0.9c-1.3-0.6-2.3-1.5-3.1-2.6c-0.8-1.2-1.2-2.6-1.2-4.2
				c0-1.4,0.3-2.6,0.9-3.5c0.6-0.9,1.3-1.6,2.3-2.1c1-0.5,2-0.9,3.2-1.2c1.2-0.3,2.3-0.5,3.5-0.6c1.5-0.2,2.7-0.3,3.7-0.5
				c0.9-0.1,1.7-0.3,2.1-0.5c0.5-0.3,0.7-0.7,0.7-1.3v-0.1c0-1.1-0.2-1.9-0.6-2.7c-0.4-0.7-1-1.3-1.8-1.7c-0.8-0.4-1.8-0.6-2.9-0.6
				c-1.2,0-2.2,0.2-3.1,0.6c-0.9,0.4-1.6,0.8-2.1,1.4c-0.5,0.6-0.9,1.1-1.2,1.7l-3.9-1.3c0.6-1.5,1.5-2.7,2.6-3.6
				c1.1-0.9,2.3-1.5,3.6-1.8c1.3-0.4,2.6-0.5,3.9-0.5c0.8,0,1.8,0.1,2.9,0.3c1.1,0.2,2.1,0.6,3.1,1.2c1,0.6,1.8,1.5,2.5,2.7
				c0.7,1.2,1,2.8,1,4.7v16.7h-4v-3.4h-0.3c-0.3,0.6-0.7,1.2-1.4,1.8c-0.6,0.6-1.5,1.1-2.5,1.6C207.6,313.1,206.3,313.3,204.9,313.3
				z M205.6,309.8c1.5,0,2.8-0.3,3.8-0.9c1-0.6,1.8-1.4,2.4-2.3c0.5-0.9,0.8-1.9,0.8-3v-3.5c-0.2,0.2-0.5,0.4-1.1,0.5
				c-0.6,0.2-1.2,0.3-1.9,0.4c-0.7,0.1-1.4,0.2-2.1,0.3c-0.7,0.1-1.2,0.1-1.6,0.2c-1,0.1-1.9,0.3-2.7,0.6c-0.9,0.3-1.5,0.7-2,1.3
				c-0.5,0.6-0.8,1.3-0.8,2.3c0,0.9,0.2,1.6,0.7,2.2c0.5,0.6,1.1,1,1.9,1.3C203.7,309.6,204.6,309.8,205.6,309.8z"/>
			<path class="st1" d="M234.1,313.3c-2.3,0-4.3-0.5-6-1.6c-1.7-1.1-3.1-2.6-4-4.6c-1-2-1.4-4.2-1.4-6.8c0-2.6,0.5-4.9,1.4-6.9
				c1-2,2.3-3.5,4-4.6c1.7-1.1,3.7-1.6,6-1.6c1.2,0,2.4,0.2,3.5,0.5c1.1,0.3,2.1,0.8,3,1.4c0.9,0.6,1.7,1.3,2.3,2.2
				c0.6,0.9,1.1,1.9,1.5,3l-3.9,1.1c-0.2-0.6-0.5-1.2-0.8-1.8c-0.4-0.5-0.8-1-1.4-1.4c-0.5-0.4-1.1-0.7-1.8-0.9
				c-0.7-0.2-1.5-0.3-2.3-0.3c-1.7,0-3.1,0.4-4.2,1.3c-1.1,0.9-1.9,2-2.4,3.5c-0.5,1.4-0.8,3-0.8,4.7c0,1.7,0.3,3.2,0.8,4.6
				c0.5,1.4,1.3,2.6,2.4,3.4c1.1,0.9,2.5,1.3,4.2,1.3c0.8,0,1.6-0.1,2.3-0.3c0.7-0.2,1.3-0.5,1.9-1c0.6-0.4,1-0.9,1.4-1.5
				c0.4-0.6,0.7-1.2,0.8-1.9l3.9,1.1c-0.3,1.1-0.8,2.1-1.5,3c-0.7,0.9-1.4,1.6-2.3,2.3c-0.9,0.6-1.9,1.1-3,1.4
				C236.5,313.1,235.4,313.3,234.1,313.3z M231.6,322.2v-2.4h2.7c0.8,0,1.4-0.1,1.7-0.3c0.3-0.2,0.5-0.6,0.5-1.2
				c0-0.6-0.2-0.9-0.5-1.2c-0.3-0.2-0.9-0.3-1.7-0.3h-1.9l0.7-5.2h2.1v1.1v1.9c1.5,0.1,2.6,0.4,3.2,1c0.7,0.6,1,1.5,1,2.7
				c0,1.3-0.4,2.3-1.3,2.9c-0.8,0.6-2.2,0.9-4,0.9H231.6z"/>
			<path class="st1" d="M257.8,313.3c-1.6,0-3-0.3-4.4-0.9c-1.3-0.6-2.3-1.5-3.1-2.6c-0.8-1.2-1.2-2.6-1.2-4.2
				c0-1.4,0.3-2.6,0.9-3.5c0.6-0.9,1.3-1.6,2.3-2.1c1-0.5,2-0.9,3.2-1.2c1.2-0.3,2.3-0.5,3.5-0.6c1.5-0.2,2.7-0.3,3.7-0.5
				c0.9-0.1,1.7-0.3,2.1-0.5c0.5-0.3,0.7-0.7,0.7-1.3v-0.1c0-1.1-0.2-1.9-0.6-2.7c-0.4-0.7-1-1.3-1.8-1.7c-0.8-0.4-1.8-0.6-2.9-0.6
				c-1.2,0-2.2,0.2-3.1,0.6c-0.9,0.4-1.6,0.8-2.1,1.4c-0.5,0.6-0.9,1.1-1.2,1.7l-3.9-1.3c0.6-1.5,1.5-2.7,2.6-3.6
				c1.1-0.9,2.3-1.5,3.6-1.8c1.3-0.4,2.6-0.5,3.9-0.5c0.8,0,1.8,0.1,2.9,0.3c1.1,0.2,2.1,0.6,3.1,1.2c1,0.6,1.8,1.5,2.5,2.7
				c0.7,1.2,1,2.8,1,4.7v16.7h-4v-3.4h-0.3c-0.3,0.6-0.7,1.2-1.4,1.8c-0.6,0.6-1.5,1.1-2.5,1.6C260.5,313.1,259.2,313.3,257.8,313.3
				z M262.7,283.1c-0.6,0-1.1-0.1-1.6-0.3c-0.5-0.2-1-0.4-1.5-0.7c-0.5-0.2-0.9-0.5-1.3-0.7c-0.4-0.2-0.7-0.3-1-0.3
				c-0.4,0-0.7,0.2-0.9,0.6c-0.2,0.4-0.3,0.8-0.3,1.2h-2.8c0-1.4,0.4-2.5,1-3.4c0.6-0.9,1.5-1.3,2.7-1.3c0.6,0,1.1,0.1,1.6,0.3
				c0.5,0.2,1,0.4,1.4,0.7c0.4,0.2,0.9,0.5,1.3,0.7c0.4,0.2,0.8,0.3,1.2,0.3c0.4,0,0.7-0.1,0.9-0.4c0.2-0.3,0.3-0.8,0.4-1.4h2.8
				c0,1.4-0.4,2.6-1,3.4C264.7,282.6,263.9,283.1,262.7,283.1z M258.5,309.8c1.5,0,2.8-0.3,3.8-0.9c1-0.6,1.8-1.4,2.4-2.3
				c0.5-0.9,0.8-1.9,0.8-3v-3.5c-0.2,0.2-0.5,0.4-1.1,0.5c-0.6,0.2-1.2,0.3-1.9,0.4c-0.7,0.1-1.4,0.2-2.1,0.3
				c-0.7,0.1-1.2,0.1-1.6,0.2c-1,0.1-1.9,0.3-2.7,0.6c-0.9,0.3-1.5,0.7-2,1.3c-0.5,0.6-0.8,1.3-0.8,2.3c0,0.9,0.2,1.6,0.7,2.2
				c0.5,0.6,1.1,1,1.9,1.3C256.6,309.6,257.5,309.8,258.5,309.8z"/>
			<path class="st1" d="M287,313.3c-2.3,0-4.3-0.5-6-1.6c-1.7-1.1-3.1-2.6-4-4.6c-1-2-1.4-4.2-1.4-6.8c0-2.6,0.5-4.9,1.4-6.9
				c1-2,2.3-3.5,4-4.6c1.7-1.1,3.7-1.6,6-1.6c2.3,0,4.3,0.5,6.1,1.6c1.7,1.1,3.1,2.6,4,4.6c1,2,1.4,4.3,1.4,6.9
				c0,2.6-0.5,4.9-1.4,6.8c-1,2-2.3,3.5-4,4.6C291.4,312.8,289.3,313.3,287,313.3z M287,309.7c1.7,0,3.1-0.4,4.2-1.3
				c1.1-0.9,1.9-2,2.4-3.4c0.5-1.4,0.8-3,0.8-4.6c0-1.7-0.3-3.2-0.8-4.7c-0.5-1.4-1.3-2.6-2.4-3.5c-1.1-0.9-2.5-1.3-4.2-1.3
				c-1.7,0-3.1,0.4-4.2,1.3c-1.1,0.9-1.9,2-2.4,3.5c-0.5,1.4-0.8,3-0.8,4.7c0,1.7,0.3,3.2,0.8,4.6c0.5,1.4,1.3,2.6,2.4,3.4
				C284,309.2,285.3,309.7,287,309.7z"/>
			<path class="st1" d="M327,313.3c-2.1,0-4-0.5-5.6-1.6c-1.6-1.1-2.9-2.6-3.8-4.5c-0.9-2-1.4-4.3-1.4-7c0-2.7,0.5-5,1.4-6.9
				c0.9-2,2.2-3.5,3.8-4.5c1.6-1.1,3.5-1.6,5.6-1.6c1.6,0,2.9,0.3,3.9,0.8c1,0.5,1.7,1.2,2.2,1.8c0.5,0.7,0.9,1.3,1.2,1.7h0.3v-12.5
				h4.1v33.7h-3.9v-3.9h-0.5c-0.3,0.5-0.7,1.1-1.2,1.8c-0.5,0.7-1.3,1.3-2.3,1.9C329.9,313,328.6,313.3,327,313.3z M327.6,309.7
				c1.5,0,2.8-0.4,3.9-1.2c1.1-0.8,1.9-1.9,2.4-3.4c0.5-1.4,0.8-3.1,0.8-5c0-1.9-0.3-3.5-0.8-4.9c-0.5-1.4-1.3-2.5-2.4-3.3
				c-1.1-0.8-2.4-1.2-3.9-1.2c-1.6,0-2.9,0.4-4,1.2c-1.1,0.8-1.9,1.9-2.4,3.4c-0.5,1.4-0.8,3-0.8,4.7c0,1.8,0.3,3.4,0.8,4.8
				c0.5,1.4,1.3,2.6,2.4,3.4C324.7,309.2,326.1,309.7,327.6,309.7z"/>
			<path class="st1" d="M356.5,313.3c-2.4,0-4.5-0.5-6.3-1.6c-1.8-1.1-3.1-2.6-4.1-4.5c-1-1.9-1.4-4.2-1.4-6.8
				c0-2.6,0.5-4.9,1.4-6.9c0.9-2,2.3-3.5,4-4.6c1.7-1.1,3.7-1.7,6-1.7c1.3,0,2.7,0.2,4,0.7c1.3,0.4,2.5,1.2,3.5,2.1
				c1.1,1,1.9,2.3,2.5,3.9c0.6,1.6,0.9,3.6,0.9,5.9v1.7h-19.6v-3.4h17.4l-1.9,1.3c0-1.7-0.3-3.1-0.8-4.4c-0.5-1.3-1.3-2.3-2.3-3
				c-1-0.7-2.3-1.1-3.8-1.1c-1.5,0-2.8,0.4-3.9,1.1c-1.1,0.7-1.9,1.7-2.5,2.9c-0.6,1.2-0.9,2.5-0.9,3.9v2.3c0,1.9,0.3,3.5,1,4.8
				c0.6,1.3,1.6,2.3,2.7,3c1.2,0.7,2.5,1,4.1,1c1,0,1.9-0.1,2.7-0.4c0.8-0.3,1.5-0.7,2.1-1.3c0.6-0.6,1-1.3,1.4-2.2l3.9,1.1
				c-0.4,1.3-1.1,2.4-2,3.3c-0.9,1-2.1,1.7-3.5,2.3C359.8,313,358.3,313.3,356.5,313.3z"/>
			<path class="st1" d="M394.5,313.3c-1.7,0-3.3-0.3-4.6-0.8c-1.3-0.5-2.5-1.3-3.3-2.3c-0.9-1-1.5-2.2-1.8-3.7l3.9-0.9
				c0.4,1.4,1,2.4,2,3.1c1,0.6,2.3,1,3.8,1c1.8,0,3.2-0.4,4.2-1.1c1-0.8,1.6-1.7,1.6-2.7c0-0.9-0.3-1.6-0.9-2.2
				c-0.6-0.6-1.5-1-2.8-1.3l-4.2-1c-2.3-0.5-4-1.4-5.1-2.5c-1.1-1.1-1.7-2.6-1.7-4.4c0-1.4,0.4-2.7,1.2-3.8c0.8-1.1,1.9-2,3.3-2.6
				c1.4-0.6,3-0.9,4.8-0.9c1.7,0,3.2,0.3,4.4,0.8c1.2,0.5,2.2,1.2,3,2.1c0.8,0.9,1.3,2,1.7,3.2l-3.7,0.9c-0.3-0.9-0.9-1.7-1.7-2.5
				c-0.8-0.7-2-1.1-3.7-1.1c-1.5,0-2.8,0.3-3.8,1c-1,0.7-1.5,1.6-1.5,2.6c0,0.9,0.3,1.7,1,2.3c0.7,0.6,1.8,1,3.2,1.4l3.8,0.9
				c2.3,0.5,4,1.4,5.1,2.5c1.1,1.1,1.7,2.6,1.7,4.3c0,1.5-0.4,2.8-1.3,3.9c-0.8,1.2-2,2.1-3.5,2.7
				C398.2,313,396.5,313.3,394.5,313.3z"/>
			<path class="st1" d="M420.7,313.3c-2.3,0-4.3-0.5-6-1.6c-1.7-1.1-3.1-2.6-4-4.6c-1-2-1.4-4.2-1.4-6.8c0-2.6,0.5-4.9,1.4-6.9
				c1-2,2.3-3.5,4-4.6c1.7-1.1,3.7-1.6,6-1.6c2.3,0,4.3,0.5,6.1,1.6c1.7,1.1,3.1,2.6,4,4.6c1,2,1.4,4.3,1.4,6.9
				c0,2.6-0.5,4.9-1.4,6.8c-1,2-2.3,3.5-4,4.6C425,312.8,423,313.3,420.7,313.3z M420.7,309.7c1.7,0,3.1-0.4,4.2-1.3
				c1.1-0.9,1.9-2,2.4-3.4c0.5-1.4,0.8-3,0.8-4.6c0-1.7-0.3-3.2-0.8-4.7c-0.5-1.4-1.3-2.6-2.4-3.5c-1.1-0.9-2.5-1.3-4.2-1.3
				c-1.7,0-3.1,0.4-4.2,1.3c-1.1,0.9-1.9,2-2.4,3.5c-0.5,1.4-0.8,3-0.8,4.7c0,1.7,0.3,3.2,0.8,4.6c0.5,1.4,1.3,2.6,2.4,3.4
				C417.6,309.2,419,309.7,420.7,309.7z"/>
			<path class="st1" d="M442.2,297.6v15.2h-4.1v-25.3h3.9l0,6.1h-0.6c0.8-2.3,1.9-4,3.3-5c1.4-1,3.1-1.5,5-1.5
				c1.7,0,3.2,0.3,4.5,1.1c1.3,0.7,2.3,1.8,3,3.2c0.7,1.4,1.1,3.2,1.1,5.3v16.1h-4.1V297c0-1.9-0.5-3.5-1.5-4.6
				c-1-1.1-2.4-1.7-4.2-1.7c-1.2,0-2.3,0.3-3.3,0.8c-1,0.5-1.7,1.3-2.3,2.3C442.5,294.9,442.2,296.2,442.2,297.6z"/>
			<path class="st1" d="M475,313.3c-2.1,0-4-0.5-5.6-1.6c-1.6-1.1-2.9-2.6-3.8-4.5c-0.9-2-1.4-4.3-1.4-7c0-2.7,0.5-5,1.4-6.9
				c0.9-2,2.2-3.5,3.8-4.5c1.6-1.1,3.5-1.6,5.6-1.6c1.6,0,2.9,0.3,3.9,0.8c1,0.5,1.7,1.2,2.2,1.8c0.5,0.7,0.9,1.3,1.2,1.7h0.3v-12.5
				h4.1v33.7h-3.9v-3.9h-0.5c-0.3,0.5-0.7,1.1-1.2,1.8c-0.5,0.7-1.3,1.3-2.3,1.9C477.9,313,476.6,313.3,475,313.3z M475.6,309.7
				c1.5,0,2.8-0.4,3.9-1.2c1.1-0.8,1.9-1.9,2.4-3.4c0.5-1.4,0.8-3.1,0.8-5c0-1.9-0.3-3.5-0.8-4.9c-0.5-1.4-1.3-2.5-2.4-3.3
				c-1.1-0.8-2.4-1.2-3.9-1.2c-1.6,0-2.9,0.4-4,1.2c-1.1,0.8-1.9,1.9-2.4,3.4c-0.5,1.4-0.8,3-0.8,4.7c0,1.8,0.3,3.4,0.8,4.8
				c0.5,1.4,1.3,2.6,2.4,3.4C472.7,309.2,474,309.7,475.6,309.7z"/>
			<path class="st1" d="M500.9,313.3c-1.6,0-3-0.3-4.4-0.9c-1.3-0.6-2.3-1.5-3.1-2.6c-0.8-1.2-1.2-2.6-1.2-4.2
				c0-1.4,0.3-2.6,0.9-3.5c0.6-0.9,1.3-1.6,2.3-2.1c1-0.5,2-0.9,3.2-1.2c1.2-0.3,2.3-0.5,3.5-0.6c1.5-0.2,2.7-0.3,3.7-0.5
				c0.9-0.1,1.7-0.3,2.1-0.5c0.5-0.3,0.7-0.7,0.7-1.3v-0.1c0-1.1-0.2-1.9-0.6-2.7c-0.4-0.7-1-1.3-1.8-1.7c-0.8-0.4-1.8-0.6-2.9-0.6
				c-1.2,0-2.2,0.2-3.1,0.6c-0.9,0.4-1.6,0.8-2.1,1.4c-0.5,0.6-0.9,1.1-1.2,1.7l-3.9-1.3c0.6-1.5,1.5-2.7,2.6-3.6
				c1.1-0.9,2.3-1.5,3.6-1.8c1.3-0.4,2.6-0.5,3.9-0.5c0.8,0,1.8,0.1,2.9,0.3c1.1,0.2,2.1,0.6,3.1,1.2c1,0.6,1.8,1.5,2.5,2.7
				c0.7,1.2,1,2.8,1,4.7v16.7h-4v-3.4h-0.3c-0.3,0.6-0.7,1.2-1.4,1.8c-0.6,0.6-1.5,1.1-2.5,1.6C503.6,313.1,502.4,313.3,500.9,313.3
				z M501.6,309.8c1.5,0,2.8-0.3,3.8-0.9c1-0.6,1.8-1.4,2.4-2.3c0.5-0.9,0.8-1.9,0.8-3v-3.5c-0.2,0.2-0.5,0.4-1.1,0.5
				c-0.6,0.2-1.2,0.3-1.9,0.4c-0.7,0.1-1.4,0.2-2.1,0.3c-0.7,0.1-1.2,0.1-1.6,0.2c-1,0.1-1.9,0.3-2.7,0.6c-0.9,0.3-1.5,0.7-2,1.3
				c-0.5,0.6-0.8,1.3-0.8,2.3c0,0.9,0.2,1.6,0.7,2.2c0.5,0.6,1.1,1,1.9,1.3C499.7,309.6,500.6,309.8,501.6,309.8z"/>
			<path class="st1" d="M536.9,297.6v15.2h-4.1v-25.3h3.9l0,6.1h-0.6c0.8-2.3,1.9-4,3.3-5c1.4-1,3.1-1.5,5-1.5
				c1.7,0,3.2,0.3,4.5,1.1c1.3,0.7,2.3,1.8,3,3.2c0.7,1.4,1.1,3.2,1.1,5.3v16.1H549V297c0-1.9-0.5-3.5-1.5-4.6
				c-1-1.1-2.4-1.7-4.2-1.7c-1.2,0-2.3,0.3-3.3,0.8c-1,0.5-1.7,1.3-2.3,2.3C537.2,294.9,536.9,296.2,536.9,297.6z"/>
			<path class="st1" d="M567.3,313.3c-1.6,0-3-0.3-4.4-0.9c-1.3-0.6-2.3-1.5-3.1-2.6c-0.8-1.2-1.2-2.6-1.2-4.2
				c0-1.4,0.3-2.6,0.9-3.5c0.6-0.9,1.3-1.6,2.3-2.1c1-0.5,2-0.9,3.2-1.2c1.2-0.3,2.3-0.5,3.5-0.6c1.5-0.2,2.7-0.3,3.7-0.5
				c0.9-0.1,1.7-0.3,2.1-0.5c0.5-0.3,0.7-0.7,0.7-1.3v-0.1c0-1.1-0.2-1.9-0.6-2.7c-0.4-0.7-1-1.3-1.8-1.7c-0.8-0.4-1.8-0.6-2.9-0.6
				c-1.2,0-2.2,0.2-3.1,0.6c-0.9,0.4-1.6,0.8-2.1,1.4c-0.5,0.6-0.9,1.1-1.2,1.7l-3.9-1.3c0.6-1.5,1.5-2.7,2.6-3.6
				c1.1-0.9,2.3-1.5,3.6-1.8c1.3-0.4,2.6-0.5,3.9-0.5c0.8,0,1.8,0.1,2.9,0.3c1.1,0.2,2.1,0.6,3.1,1.2c1,0.6,1.8,1.5,2.5,2.7
				c0.7,1.2,1,2.8,1,4.7v16.7h-4v-3.4h-0.3c-0.3,0.6-0.7,1.2-1.4,1.8c-0.6,0.6-1.5,1.1-2.5,1.6C570,313.1,568.7,313.3,567.3,313.3z
				 M568,309.8c1.5,0,2.8-0.3,3.8-0.9c1-0.6,1.8-1.4,2.4-2.3c0.5-0.9,0.8-1.9,0.8-3v-3.5c-0.2,0.2-0.5,0.4-1.1,0.5
				c-0.6,0.2-1.2,0.3-1.9,0.4c-0.7,0.1-1.4,0.2-2.1,0.3c-0.7,0.1-1.2,0.1-1.6,0.2c-1,0.1-1.9,0.3-2.7,0.6c-0.9,0.3-1.5,0.7-2,1.3
				c-0.5,0.6-0.8,1.3-0.8,2.3c0,0.9,0.2,1.6,0.7,2.2c0.5,0.6,1.1,1,1.9,1.3C566.1,309.6,567,309.8,568,309.8z"/>
			<path class="st1" d="M594.8,313.3c-1.7,0-3.3-0.3-4.6-0.8c-1.3-0.5-2.5-1.3-3.3-2.3c-0.9-1-1.5-2.2-1.8-3.7l3.9-0.9
				c0.4,1.4,1,2.4,2,3.1c1,0.6,2.3,1,3.8,1c1.8,0,3.2-0.4,4.2-1.1c1-0.8,1.6-1.7,1.6-2.7c0-0.9-0.3-1.6-0.9-2.2
				c-0.6-0.6-1.5-1-2.8-1.3l-4.2-1c-2.3-0.5-4-1.4-5.1-2.5c-1.1-1.1-1.7-2.6-1.7-4.4c0-1.4,0.4-2.7,1.2-3.8c0.8-1.1,1.9-2,3.3-2.6
				c1.4-0.6,3-0.9,4.8-0.9c1.7,0,3.2,0.3,4.4,0.8c1.2,0.5,2.2,1.2,3,2.1c0.8,0.9,1.3,2,1.7,3.2l-3.7,0.9c-0.3-0.9-0.9-1.7-1.7-2.5
				c-0.8-0.7-2-1.1-3.7-1.1c-1.5,0-2.8,0.3-3.8,1c-1,0.7-1.5,1.6-1.5,2.6c0,0.9,0.3,1.7,1,2.3c0.7,0.6,1.8,1,3.2,1.4l3.8,0.9
				c2.3,0.5,4,1.4,5.1,2.5c1.1,1.1,1.7,2.6,1.7,4.3c0,1.5-0.4,2.8-1.3,3.9c-0.8,1.2-2,2.1-3.5,2.7
				C598.5,313,596.8,313.3,594.8,313.3z"/>
			<path class="st1" d="M621,313.3c-2.3,0-4.3-0.5-6-1.6c-1.7-1.1-3.1-2.6-4-4.6c-1-2-1.4-4.2-1.4-6.8c0-2.6,0.5-4.9,1.4-6.9
				c1-2,2.3-3.5,4-4.6c1.7-1.1,3.7-1.6,6-1.6c2.3,0,4.3,0.5,6.1,1.6c1.7,1.1,3.1,2.6,4,4.6c1,2,1.4,4.3,1.4,6.9
				c0,2.6-0.5,4.9-1.4,6.8c-1,2-2.3,3.5-4,4.6C625.3,312.8,623.3,313.3,621,313.3z M621,309.7c1.7,0,3.1-0.4,4.2-1.3
				c1.1-0.9,1.9-2,2.4-3.4c0.5-1.4,0.8-3,0.8-4.6c0-1.7-0.3-3.2-0.8-4.7c-0.5-1.4-1.3-2.6-2.4-3.5c-1.1-0.9-2.5-1.3-4.2-1.3
				c-1.7,0-3.1,0.4-4.2,1.3c-1.1,0.9-1.9,2-2.4,3.5c-0.5,1.4-0.8,3-0.8,4.7c0,1.7,0.3,3.2,0.8,4.6c0.5,1.4,1.3,2.6,2.4,3.4
				C617.9,309.2,619.3,309.7,621,309.7z"/>
			<path class="st1" d="M649.1,313.3c-2.4,0-4.5-0.5-6.3-1.6c-1.8-1.1-3.1-2.6-4.1-4.5c-1-1.9-1.4-4.2-1.4-6.8
				c0-2.6,0.5-4.9,1.4-6.9c0.9-2,2.3-3.5,4-4.6c1.7-1.1,3.7-1.7,6-1.7c1.3,0,2.7,0.2,4,0.7c1.3,0.4,2.5,1.2,3.5,2.1
				c1.1,1,1.9,2.3,2.5,3.9c0.6,1.6,0.9,3.6,0.9,5.9v1.7H640v-3.4h17.4l-1.9,1.3c0-1.7-0.3-3.1-0.8-4.4c-0.5-1.3-1.3-2.3-2.3-3
				c-1-0.7-2.3-1.1-3.8-1.1c-1.5,0-2.8,0.4-3.9,1.1c-1.1,0.7-1.9,1.7-2.5,2.9c-0.6,1.2-0.9,2.5-0.9,3.9v2.3c0,1.9,0.3,3.5,1,4.8
				c0.6,1.3,1.6,2.3,2.7,3c1.2,0.7,2.5,1,4.1,1c1,0,1.9-0.1,2.7-0.4c0.8-0.3,1.5-0.7,2.1-1.3c0.6-0.6,1-1.3,1.4-2.2l3.9,1.1
				c-0.4,1.3-1.1,2.4-2,3.3c-0.9,1-2.1,1.7-3.5,2.3C652.4,313,650.8,313.3,649.1,313.3z"/>
			<path class="st1" d="M669.5,297.6v15.2h-4.1v-25.3h3.9l0,6.1h-0.6c0.8-2.3,1.9-4,3.3-5c1.4-1,3.1-1.5,5-1.5
				c1.7,0,3.2,0.3,4.5,1.1c1.3,0.7,2.3,1.8,3,3.2c0.7,1.4,1.1,3.2,1.1,5.3v16.1h-4.1V297c0-1.9-0.5-3.5-1.5-4.6
				c-1-1.1-2.4-1.7-4.2-1.7c-1.2,0-2.3,0.3-3.3,0.8c-1,0.5-1.7,1.3-2.3,2.3C669.8,294.9,669.5,296.2,669.5,297.6z"/>
			<path class="st1" d="M702.8,287.5v3.5h-13.1v-3.5H702.8z M693.5,281.5h4.1v24.7c0,1.1,0.2,2,0.7,2.5c0.5,0.5,1.2,0.8,2.3,0.8
				c0.3,0,0.6,0,1-0.1c0.4-0.1,0.8-0.1,1.1-0.2l0.8,3.4c-0.4,0.1-0.9,0.3-1.4,0.3c-0.5,0.1-1.1,0.1-1.6,0.1c-2.2,0-3.9-0.6-5.1-1.7
				c-1.2-1.2-1.8-2.8-1.8-4.8V281.5z"/>
			<path class="st1" d="M718.1,313.3c-2.4,0-4.5-0.5-6.3-1.6c-1.8-1.1-3.1-2.6-4.1-4.5c-1-1.9-1.4-4.2-1.4-6.8
				c0-2.6,0.5-4.9,1.4-6.9c0.9-2,2.3-3.5,4-4.6c1.7-1.1,3.7-1.7,6-1.7c1.3,0,2.7,0.2,4,0.7c1.3,0.4,2.5,1.2,3.5,2.1
				c1.1,1,1.9,2.3,2.5,3.9c0.6,1.6,0.9,3.6,0.9,5.9v1.7h-19.6v-3.4h17.4l-1.9,1.3c0-1.7-0.3-3.1-0.8-4.4c-0.5-1.3-1.3-2.3-2.3-3
				c-1-0.7-2.3-1.1-3.8-1.1c-1.5,0-2.8,0.4-3.9,1.1c-1.1,0.7-1.9,1.7-2.5,2.9c-0.6,1.2-0.9,2.5-0.9,3.9v2.3c0,1.9,0.3,3.5,1,4.8
				c0.6,1.3,1.6,2.3,2.7,3c1.2,0.7,2.5,1,4.1,1c1,0,1.9-0.1,2.7-0.4c0.8-0.3,1.5-0.7,2.1-1.3c0.6-0.6,1-1.3,1.4-2.2l3.9,1.1
				c-0.4,1.3-1.1,2.4-2,3.3c-0.9,1-2.1,1.7-3.5,2.3C721.4,313,719.9,313.3,718.1,313.3z"/>
			<path class="st1" d="M734.5,312.8v-25.3h3.9v3.9h0.3c0.5-1.3,1.3-2.3,2.5-3.1c1.2-0.8,2.6-1.2,4.1-1.2c0.3,0,0.7,0,1.1,0
				c0.4,0,0.7,0,1,0v4.1c-0.1,0-0.4-0.1-0.9-0.1c-0.5-0.1-1-0.1-1.5-0.1c-1.2,0-2.3,0.3-3.2,0.8c-1,0.5-1.7,1.2-2.2,2.1
				c-0.5,0.9-0.8,1.9-0.8,3v15.8H734.5z"/>
			<path class="st1" d="M759,313.3c-1.6,0-3-0.3-4.4-0.9c-1.3-0.6-2.3-1.5-3.1-2.6c-0.8-1.2-1.2-2.6-1.2-4.2c0-1.4,0.3-2.6,0.9-3.5
				c0.6-0.9,1.3-1.6,2.3-2.1c1-0.5,2-0.9,3.2-1.2c1.2-0.3,2.3-0.5,3.5-0.6c1.5-0.2,2.7-0.3,3.7-0.5c0.9-0.1,1.7-0.3,2.1-0.5
				c0.5-0.3,0.7-0.7,0.7-1.3v-0.1c0-1.1-0.2-1.9-0.6-2.7c-0.4-0.7-1-1.3-1.8-1.7c-0.8-0.4-1.8-0.6-2.9-0.6c-1.2,0-2.2,0.2-3.1,0.6
				c-0.9,0.4-1.6,0.8-2.1,1.4c-0.5,0.6-0.9,1.1-1.2,1.7l-3.9-1.3c0.6-1.5,1.5-2.7,2.6-3.6c1.1-0.9,2.3-1.5,3.6-1.8
				c1.3-0.4,2.6-0.5,3.9-0.5c0.8,0,1.8,0.1,2.9,0.3c1.1,0.2,2.1,0.6,3.1,1.2c1,0.6,1.8,1.5,2.5,2.7c0.7,1.2,1,2.8,1,4.7v16.7h-4
				v-3.4h-0.3c-0.3,0.6-0.7,1.2-1.4,1.8c-0.6,0.6-1.5,1.1-2.5,1.6C761.7,313.1,760.5,313.3,759,313.3z M759.7,309.8
				c1.5,0,2.8-0.3,3.8-0.9c1-0.6,1.8-1.4,2.4-2.3c0.5-0.9,0.8-1.9,0.8-3v-3.5c-0.2,0.2-0.5,0.4-1.1,0.5c-0.6,0.2-1.2,0.3-1.9,0.4
				c-0.7,0.1-1.4,0.2-2.1,0.3c-0.7,0.1-1.2,0.1-1.6,0.2c-1,0.1-1.9,0.3-2.7,0.6c-0.9,0.3-1.5,0.7-2,1.3c-0.5,0.6-0.8,1.3-0.8,2.3
				c0,0.9,0.2,1.6,0.7,2.2c0.5,0.6,1.1,1,1.9,1.3C757.8,309.6,758.7,309.8,759.7,309.8z"/>
			<path class="st1" d="M782,279.1v33.7H778v-33.7H782z"/>
		</g>
	</g>
	<g class="st7">
		<rect x="245" y="253" class="st8" width="320.2" height="170.1"/>
		<rect x="245" y="309.7" class="st8" width="320.2" height="56.7"/>
		<rect x="245" y="366.4" class="st9" width="320.2" height="28.3"/>
	</g>
</g>
<g id="teste_de_cores">
</g>
<g id="textura">
</g>
<g id="testes">
</g>
<g id="Manual_de_Marca">
</g>
<g id="logo">
</g>
</svg>
